<svg width="336" height="250" viewBox="0 0 336 250" fill="none" xmlns="http://www.w3.org/2000/svg">
<path d="M40.933 99.7492C60.2588 173.026 146.956 200.961 189.231 125.141C211.02 86.0534 289.772 159.478 284.652 102.527C277.593 24.0164 189.56 85.2012 146.419 73.2501C116.76 65.0904 116.874 11.8104 71.4314 20.6143C35.5044 27.5729 32.8806 69.2843 40.933 99.7492Z" fill="#407BFF"/>
<path opacity="0.9" d="M40.933 99.7492C60.2588 173.026 146.956 200.961 189.231 125.141C211.02 86.0534 289.772 159.478 284.652 102.527C277.593 24.0164 189.56 85.2012 146.419 73.2501C116.76 65.0904 116.874 11.8104 71.4314 20.6143C35.5044 27.5729 32.8806 69.2843 40.933 99.7492Z" fill="white"/>
<path d="M164.403 250C236.259 250 294.51 246.599 294.51 242.404C294.51 238.209 236.259 234.808 164.403 234.808C92.5472 234.808 34.2965 238.209 34.2965 242.404C34.2965 246.599 92.5472 250 164.403 250Z" fill="#F5F5F5"/>
<path d="M208.57 53.4947V126.698H143.729V36.2156H191.285L208.57 53.4947Z" fill="#407BFF"/>
<path opacity="0.8" d="M208.57 53.4947V126.698H143.729V36.2156H191.285L208.57 53.4947Z" fill="white"/>
<path opacity="0.2" d="M208.57 85.1072H143.729V89.5293H208.57V85.1072Z" fill="#407BFF"/>
<path d="M208.57 53.4947H191.285V36.2156L208.57 53.4947Z" fill="#407BFF"/>
<path d="M190.285 184.863H143.158C143.158 184.863 146.117 223.669 137.448 239.398H195.989C187.326 223.669 190.285 184.863 190.285 184.863Z" fill="#407BFF"/>
<path opacity="0.2" d="M191.204 222.655C188.715 205.403 190.285 184.863 190.285 184.863H143.158C143.158 184.863 144.567 203.356 142.588 219.985L191.204 222.655Z" fill="black"/>
<path d="M202.793 238.036H130.65C130.01 238.037 129.397 238.292 128.944 238.745C128.491 239.198 128.236 239.811 128.234 240.451H205.209C205.207 239.811 204.952 239.198 204.499 238.745C204.046 238.292 203.433 238.037 202.793 238.036Z" fill="#407BFF"/>
<path d="M270.782 163.591H270.091V168.315H270.782V163.591Z" fill="#407BFF"/>
<path d="M270.782 145.789H270.091V159.33H270.782V145.789Z" fill="#407BFF"/>
<path d="M263.615 88.4287H69.8277C67.2075 88.4287 65.0835 90.5528 65.0835 93.1729V210.53C65.0835 213.15 67.2075 215.274 69.8277 215.274H263.615C266.235 215.274 268.359 213.15 268.359 210.53V93.1729C268.359 90.5528 266.235 88.4287 263.615 88.4287Z" fill="#407BFF"/>
<path d="M261.743 91.4751H71.6932C69.6956 91.4751 68.0763 93.0944 68.0763 95.092V181.246C68.0763 183.243 69.6956 184.863 71.6932 184.863H261.743C263.741 184.863 265.36 183.243 265.36 181.246V95.092C265.36 93.0944 263.741 91.4751 261.743 91.4751Z" fill="white"/>
<path opacity="0.9" d="M65.0902 187.889V210.516C65.0938 211.774 65.5947 212.978 66.4837 213.867C67.3726 214.756 68.5773 215.257 69.8344 215.261H263.615C264.872 215.257 266.077 214.756 266.966 213.867C267.855 212.978 268.356 211.774 268.359 210.516V187.889H65.0902Z" fill="white"/>
<path opacity="0.5" d="M166.718 206.161C169.242 206.161 171.288 204.116 171.288 201.592C171.288 199.068 169.242 197.022 166.718 197.022C164.194 197.022 162.148 199.068 162.148 201.592C162.148 204.116 164.194 206.161 166.718 206.161Z" fill="#407BFF"/>
<path opacity="0.4" d="M119.021 74.5854V140.649H185.084L119.021 74.5854ZM133.536 109.64L150.03 126.154H133.536V109.64Z" fill="#407BFF"/>
<path d="M194.727 151.184V164.779C194.732 166.978 195.608 169.085 197.162 170.64C198.716 172.196 200.822 173.073 203.021 173.08H250.966C253.166 173.073 255.273 172.196 256.828 170.641C258.383 169.085 259.26 166.978 259.267 164.779V116.84C259.26 114.642 258.383 112.535 256.828 110.981C255.272 109.427 253.165 108.552 250.966 108.546H203.021C200.823 108.552 198.716 109.427 197.162 110.982C195.608 112.536 194.732 114.642 194.727 116.84V131.744" fill="white"/>
<path d="M250.966 173.422H248.282V172.751H251.04V173.422H250.966ZM245.544 173.422H242.78V172.751H245.544V173.422ZM240.008 173.422H237.244V172.751H240.008V173.422ZM234.479 173.422H231.708V172.751H234.472L234.479 173.422ZM228.95 173.422H226.185V172.751H228.95V173.422ZM223.42 173.422H220.649V172.751H223.42V173.422ZM217.884 173.422H215.12V172.751H217.884V173.422ZM212.355 173.422H209.59V172.751H212.355V173.422ZM206.826 173.422H204.054V172.751H206.826V173.422ZM201.236 173.234C200.288 173.034 199.38 172.676 198.552 172.174L198.914 171.583C199.669 172.045 200.497 172.374 201.364 172.556L201.236 173.234ZM253.899 172.905L253.664 172.234C254.495 171.929 255.271 171.489 255.959 170.932L256.395 171.469C255.648 172.086 254.801 172.571 253.892 172.905H253.899ZM196.398 170.308C195.78 169.57 195.29 168.733 194.948 167.832L195.619 167.59C195.939 168.417 196.392 169.186 196.962 169.865L196.398 170.308ZM258.294 169.349L257.71 168.98C258.181 168.23 258.521 167.407 258.717 166.544L259.388 166.698C259.174 167.638 258.802 168.534 258.287 169.349H258.294ZM194.391 165.02C194.391 164.94 194.391 164.859 194.391 164.779V162.249H195.063V165L194.391 165.02ZM259.609 163.873H258.938V161.108H259.609V163.873ZM195.076 159.478H194.405V156.713H195.076V159.478ZM259.602 158.364H258.931V155.599H259.602V158.364ZM195.069 153.969H194.398V151.184H195.069V153.969ZM259.602 152.828H258.931V150.043H259.602V152.828ZM259.602 147.298H258.931V144.534H259.602V147.298ZM259.602 141.769H258.931V139.004H259.602V141.769ZM259.602 136.24H258.931V133.468H259.602V136.24ZM195.069 131.355H194.398V128.583H195.069V131.355ZM259.602 130.684H258.931V127.919H259.602V130.684ZM195.069 125.799H194.398V123.034H195.069V125.799ZM259.602 125.128H258.931V122.363H259.602V125.128ZM195.069 120.242H194.398V117.478H195.069V120.242ZM259.602 119.571H258.931V116.8H259.602V119.571ZM195.324 114.794L194.653 114.619C194.895 113.686 195.294 112.801 195.834 112.002L196.405 112.391C195.906 113.142 195.54 113.973 195.324 114.847V114.794ZM258.475 114.203C258.188 113.364 257.759 112.581 257.207 111.888L257.75 111.459C258.348 112.214 258.816 113.065 259.133 113.975L258.475 114.203ZM198.216 110.465L197.794 109.915C198.559 109.331 199.416 108.877 200.33 108.573L200.545 109.244C199.704 109.538 198.917 109.969 198.216 110.519V110.465ZM255.254 110.11C254.512 109.627 253.692 109.273 252.832 109.063L252.999 108.392C253.948 108.634 254.849 109.036 255.663 109.58L255.254 110.11ZM250.168 108.835H247.41V108.164H250.174L250.168 108.835ZM244.638 108.835H241.874V108.164H244.638V108.835ZM239.109 108.835H236.338V108.164H239.109V108.835ZM233.573 108.835H230.835V108.164H233.6L233.573 108.835ZM228.044 108.835H225.279V108.164H228.044V108.835ZM222.514 108.835H219.743V108.164H222.514V108.835ZM216.978 108.835H214.214V108.164H216.978V108.835ZM211.449 108.835H208.691V108.164H211.456L211.449 108.835ZM205.92 108.835H203.155V108.164H205.92V108.835Z" fill="#407BFF"/>
<path d="M194.841 142.172V133.744C193.82 135.916 193.28 138.282 193.257 140.682L194.392 141.816V142.628L192.707 144.312C192.713 144.202 192.696 144.092 192.658 143.988C192.62 143.884 192.562 143.789 192.486 143.708C192.083 143.299 191.244 143.48 190.62 144.104C189.996 144.728 189.815 145.561 190.224 145.97C190.634 146.379 191.466 146.198 192.09 145.574L194.392 143.272V146.956C194.392 147.842 194.855 148.56 195.425 148.56C195.995 148.56 196.465 147.842 196.465 146.956C196.465 146.071 196.002 145.359 195.425 145.359C195.315 145.363 195.207 145.389 195.108 145.437C195.008 145.484 194.92 145.551 194.848 145.634V142.836L195.713 141.971H197.284C198.965 140.254 200.254 138.194 201.062 135.931L194.841 142.172ZM191.875 145.366C191.432 145.816 190.828 145.943 190.533 145.654C190.238 145.366 190.372 144.762 190.822 144.312C191.271 143.863 191.868 143.735 192.164 144.024C192.459 144.312 192.331 144.943 191.875 145.366ZM195.418 145.789C195.834 145.789 196.17 146.299 196.17 146.936C196.17 147.574 195.834 148.09 195.418 148.09C195.002 148.09 194.673 147.574 194.673 146.936C194.673 146.299 195.009 145.789 195.418 145.789Z" fill="#407BFF"/>
<path d="M168.852 157.646C168.091 156.878 167.665 155.841 167.665 154.76C167.665 153.68 168.091 152.643 168.852 151.875L171.442 149.285C172.209 148.52 173.248 148.091 174.331 148.091C175.414 148.091 176.453 148.52 177.22 149.285C177.984 150.051 178.413 151.088 178.413 152.17C178.413 153.252 177.984 154.289 177.22 155.056L174.63 157.646C173.862 158.41 172.824 158.839 171.741 158.839C170.658 158.839 169.619 158.41 168.852 157.646Z" fill="#263238"/>
<path d="M155.753 175.643L171.643 159.753L166.752 154.861L150.862 170.751C150.676 170.936 150.552 171.175 150.509 171.434C150.466 171.692 150.504 171.958 150.62 172.194C150.708 172.364 150.753 172.553 150.753 172.744C150.753 172.936 150.708 173.124 150.62 173.294C150.423 173.654 150.347 174.069 150.406 174.475C150.464 174.882 150.652 175.259 150.942 175.549C151.234 175.839 151.611 176.027 152.019 176.087C152.426 176.146 152.841 176.073 153.204 175.878C153.374 175.79 153.562 175.744 153.754 175.744C153.945 175.744 154.134 175.79 154.304 175.878C154.539 175.997 154.806 176.038 155.067 175.996C155.327 175.954 155.568 175.83 155.753 175.643Z" fill="white"/>
<path d="M152.325 176.797C151.875 176.798 151.432 176.681 151.041 176.46C150.649 176.238 150.322 175.918 150.091 175.532C149.861 175.145 149.734 174.706 149.725 174.256C149.715 173.806 149.822 173.361 150.036 172.965C150.074 172.894 150.094 172.815 150.094 172.734C150.094 172.653 150.074 172.574 150.036 172.502C149.856 172.137 149.795 171.724 149.861 171.323C149.928 170.921 150.118 170.55 150.405 170.261L166.295 154.371C166.358 154.304 166.434 154.251 166.518 154.214C166.603 154.178 166.693 154.159 166.785 154.159C166.877 154.159 166.968 154.178 167.052 154.214C167.137 154.251 167.212 154.304 167.275 154.371L172.16 159.263C172.227 159.326 172.281 159.402 172.317 159.486C172.354 159.57 172.373 159.661 172.373 159.753C172.373 159.845 172.354 159.935 172.317 160.02C172.281 160.104 172.227 160.18 172.16 160.243L156.27 176.133C155.983 176.421 155.613 176.611 155.212 176.677C154.811 176.744 154.4 176.682 154.036 176.502C153.964 176.466 153.885 176.447 153.804 176.447C153.724 176.447 153.645 176.466 153.573 176.502C153.189 176.705 152.759 176.807 152.325 176.797ZM166.772 155.841L151.372 171.241C151.281 171.325 151.221 171.436 151.202 171.558C151.183 171.679 151.204 171.804 151.264 171.912C151.403 172.181 151.476 172.478 151.476 172.781C151.476 173.083 151.403 173.381 151.264 173.65C151.141 173.88 151.095 174.143 151.134 174.401C151.172 174.659 151.292 174.898 151.476 175.082C151.661 175.266 151.899 175.386 152.157 175.425C152.415 175.463 152.678 175.417 152.908 175.294C153.177 175.155 153.475 175.083 153.777 175.083C154.08 175.083 154.378 175.155 154.646 175.294C154.755 175.351 154.879 175.372 155 175.353C155.121 175.333 155.232 175.275 155.317 175.187L170.751 159.786L166.772 155.841Z" fill="#407BFF"/>
<path d="M165.457 152.244C165.834 151.869 166.344 151.659 166.876 151.659C167.408 151.659 167.918 151.869 168.295 152.244L174.261 158.21C174.633 158.586 174.843 159.095 174.843 159.625C174.843 160.156 174.633 160.664 174.261 161.041C173.884 161.414 173.375 161.623 172.845 161.623C172.314 161.623 171.806 161.414 171.429 161.041L165.457 155.076C165.084 154.699 164.875 154.19 164.875 153.66C164.875 153.13 165.084 152.621 165.457 152.244Z" fill="#263238"/>
<path d="M241.991 88.5288L231.111 77.6487C230.647 77.1848 229.895 77.1849 229.431 77.6487L224.487 82.5929C224.023 83.0567 224.023 83.8088 224.487 84.2726L235.367 95.1527C235.831 95.6165 236.583 95.6165 237.047 95.1527L241.991 90.2085C242.455 89.7447 242.455 88.9926 241.991 88.5288Z" fill="#263238"/>
<path d="M259.636 60.0103L237.989 81.6579L234.338 78.0007C237.499 74.8402 235.68 67.4655 235.68 67.4655L241.686 61.4598C251.403 60.1177 271.882 45.5764 271.882 45.5764L272.553 46.2474L259.69 59.0508C259.622 59.1096 259.567 59.1814 259.528 59.2618C259.488 59.3423 259.466 59.4298 259.461 59.5192C259.456 59.6087 259.469 59.6982 259.499 59.7825C259.529 59.8669 259.576 59.9443 259.636 60.0103Z" fill="#407BFF"/>
<path d="M258.18 77.9741L252.174 84.0134C252.174 84.0134 244.793 82.1748 241.639 85.3555L237.989 81.705L259.636 60.0575C259.703 60.1169 259.782 60.1622 259.867 60.1906C259.952 60.2191 260.042 60.2303 260.131 60.2234C260.221 60.2165 260.308 60.1917 260.388 60.1506C260.468 60.1094 260.538 60.0527 260.596 59.9837L273.426 47.1536L274.097 47.8246C274.097 47.8246 259.542 68.2643 258.18 77.9741Z" fill="#407BFF"/>
<path opacity="0.2" d="M258.18 77.9741L252.174 84.0134C252.174 84.0134 244.793 82.1748 241.639 85.3555L237.989 81.705L259.636 60.0575C259.703 60.1169 259.782 60.1622 259.867 60.1906C259.952 60.2191 260.042 60.2303 260.131 60.2234C260.221 60.2165 260.308 60.1917 260.388 60.1506C260.468 60.1094 260.538 60.0527 260.596 59.9837L273.426 47.1536L274.097 47.8246C274.097 47.8246 259.542 68.2643 258.18 77.9741Z" fill="white"/>
<path d="M276.466 90.5157L276.076 90.1265C279.209 87.0674 281.703 83.4172 283.414 79.3873C285.125 75.3574 286.019 71.028 286.045 66.6499C286.071 62.2718 285.228 57.9321 283.564 53.8823C281.901 49.8324 279.45 46.153 276.354 43.0572C273.259 39.9613 269.579 37.5107 265.529 35.8472C261.48 34.1837 257.14 33.3404 252.762 33.3663C248.384 33.3922 244.054 34.2867 240.024 35.9979C235.994 37.7091 232.344 40.2031 229.285 43.3353L228.896 42.9461C232.007 39.7645 235.717 37.2316 239.814 35.4941C243.91 33.7565 248.31 32.8489 252.759 32.8238C257.209 32.7986 261.619 33.6565 265.735 35.3476C269.85 37.0387 273.59 39.5296 276.736 42.6758C279.882 45.8221 282.373 49.5613 284.064 53.6769C285.755 57.7925 286.613 62.2027 286.588 66.6522C286.563 71.1016 285.655 75.5019 283.918 79.5981C282.18 83.6943 279.647 87.4051 276.466 90.5157Z" fill="#407BFF"/>
<path d="M246.596 13.0482L246.207 13.4373L305.998 73.228L306.387 72.8389L246.596 13.0482Z" fill="#407BFF"/>
<path d="M278.765 43.1353L276.298 40.668L273.831 43.1353L276.298 45.6027L278.765 43.1353Z" fill="#407BFF"/>
<path d="M276.298 46.0531L273.386 43.1408L276.298 40.2285L279.217 43.1408L276.298 46.0531ZM274.285 43.1408L276.298 45.1539L278.311 43.1408L276.298 41.1277L274.285 43.1408Z" fill="#407BFF"/>
<path d="M231.581 43.1375L229.113 40.6702L226.646 43.1375L229.113 45.6049L231.581 43.1375Z" fill="white"/>
<path d="M229.117 46.0531L226.205 43.1408L229.117 40.2285L232.03 43.1408L229.117 46.0531ZM227.104 43.1408L229.117 45.1539L231.131 43.1408L229.117 41.1277L227.104 43.1408Z" fill="#407BFF"/>
<path d="M278.873 90.4202L276.406 87.9529L273.938 90.4202L276.406 92.8876L278.873 90.4202Z" fill="white"/>
<path d="M276.405 93.3341L273.493 90.4218L276.405 87.5095L279.317 90.4218L276.405 93.3341ZM274.392 90.4218L276.405 92.4349L278.418 90.4218L276.405 88.4087L274.392 90.4218Z" fill="#407BFF"/>
<path d="M307.534 74.3705C307.29 74.6142 306.979 74.7801 306.641 74.8472C306.303 74.9143 305.952 74.8795 305.633 74.7474C305.315 74.6153 305.042 74.3916 304.851 74.1048C304.659 73.8179 304.557 73.4807 304.557 73.1358C304.557 72.7909 304.659 72.4537 304.851 72.1668C305.042 71.88 305.315 71.6563 305.633 71.5242C305.952 71.3921 306.303 71.3573 306.641 71.4244C306.979 71.4915 307.29 71.6574 307.534 71.9011C307.861 72.2292 308.044 72.6731 308.044 73.1358C308.044 73.5985 307.861 74.0424 307.534 74.3705Z" fill="white"/>
<path d="M306.3 75.1958C305.823 75.1961 305.361 75.0311 304.993 74.7289C304.624 74.4267 304.372 74.0061 304.278 73.5387C304.185 73.0712 304.257 72.586 304.481 72.1655C304.706 71.7451 305.069 71.4155 305.509 71.2329C305.95 71.0503 306.44 71.026 306.896 71.1641C307.352 71.3023 307.746 71.5943 308.011 71.9905C308.276 72.3867 308.395 72.8625 308.349 73.3369C308.302 73.8112 308.093 74.2548 307.756 74.5919C307.565 74.7838 307.338 74.936 307.088 75.0397C306.838 75.1434 306.57 75.1964 306.3 75.1958ZM306.3 71.7065C305.969 71.7077 305.649 71.8234 305.394 72.0341C305.139 72.2447 304.966 72.5371 304.902 72.8616C304.839 73.1861 304.89 73.5225 305.047 73.8136C305.203 74.1046 305.456 74.3324 305.762 74.4579C306.068 74.5835 306.408 74.5992 306.724 74.5023C307.04 74.4054 307.313 74.2019 307.496 73.9265C307.678 73.651 307.76 73.3207 307.727 72.9918C307.694 72.6629 307.547 72.3557 307.313 72.1225C307.043 71.856 306.679 71.7065 306.3 71.7065Z" fill="#407BFF"/>
<path d="M247.611 14.4741C247.367 14.7187 247.057 14.8856 246.718 14.9534C246.379 15.0213 246.028 14.9871 245.709 14.8552C245.39 14.7234 245.117 14.4998 244.925 14.2127C244.733 13.9257 244.63 13.5881 244.63 13.2427C244.63 12.8974 244.733 12.5598 244.925 12.2728C245.117 11.9857 245.39 11.7621 245.709 11.6302C246.028 11.4984 246.379 11.4642 246.718 11.5321C247.057 11.5999 247.367 11.7667 247.611 12.0114C247.937 12.3384 248.12 12.7812 248.12 13.2427C248.12 13.7043 247.937 14.1471 247.611 14.4741Z" fill="white"/>
<path d="M246.403 15.2996C245.996 15.2996 245.598 15.1788 245.259 14.9524C244.92 14.726 244.656 14.4043 244.5 14.0279C244.344 13.6514 244.303 13.2372 244.383 12.8376C244.462 12.438 244.658 12.0709 244.947 11.7828C245.235 11.4947 245.602 11.2985 246.001 11.219C246.401 11.1395 246.815 11.1803 247.192 11.3363C247.568 11.4922 247.89 11.7562 248.116 12.095C248.343 12.4338 248.463 12.8321 248.463 13.2395C248.466 13.5104 248.414 13.779 248.31 14.0292C248.206 14.2794 248.053 14.5061 247.859 14.6957C247.67 14.8891 247.443 15.0423 247.193 15.1461C246.943 15.2499 246.674 15.3021 246.403 15.2996ZM246.403 11.8102C246.216 11.8102 246.03 11.8476 245.857 11.9202C245.685 11.9927 245.528 12.0991 245.397 12.233C245.168 12.507 245.05 12.8565 245.067 13.2129C245.083 13.5693 245.231 13.9068 245.484 14.159C245.736 14.4113 246.074 14.5601 246.43 14.5762C246.786 14.5923 247.136 14.4746 247.41 14.2461C247.544 14.1134 247.65 13.9555 247.722 13.7816C247.795 13.6078 247.832 13.4212 247.833 13.2328C247.829 12.8537 247.676 12.4911 247.408 12.2237C247.139 11.9562 246.776 11.8053 246.397 11.8035L246.403 11.8102Z" fill="#407BFF"/>
<path d="M110.157 48.5896H83.4229V158.297H110.157V48.5896Z" fill="#407BFF"/>
<path opacity="0.7" d="M110.157 48.5896H83.4229V158.297H110.157V48.5896Z" fill="white"/>
<path opacity="0.3" d="M108.164 53.8169H85.4225V64.2649H108.164V53.8169Z" fill="#263238"/>
<path opacity="0.416667" d="M108.164 66.4526H85.4225V76.9006H108.164V66.4526Z" fill="#263238"/>
<path opacity="0.533333" d="M108.164 79.0881H85.4225V89.5361H108.164V79.0881Z" fill="#263238"/>
<path opacity="0.65" d="M108.164 91.7302H85.4225V102.178H108.164V91.7302Z" fill="#263238"/>
<path opacity="0.766667" d="M108.164 104.366H85.4225V114.814H108.164V104.366Z" fill="#263238"/>
<path opacity="0.883333" d="M108.164 117.001H85.4225V127.449H108.164V117.001Z" fill="#263238"/>
<path d="M108.164 129.644H85.4225V140.092H108.164V129.644Z" fill="#263238"/>
<path d="M91.3066 55.1156L64.9707 59.7119L83.8326 167.785L110.168 163.189L91.3066 55.1156Z" fill="#407BFF"/>
<path opacity="0.8" d="M91.3066 55.1156L64.9707 59.7119L83.8326 167.785L110.168 163.189L91.3066 55.1156Z" fill="white"/>
<path d="M90.2406 60.6023L67.8379 64.5122L69.6342 74.8046L92.0369 70.8947L90.2406 60.6023Z" fill="#407BFF"/>
<path d="M92.4166 73.0545L70.0139 76.9644L71.8102 87.2568L94.2129 83.3469L92.4166 73.0545Z" fill="#407BFF"/>
<path d="M94.5914 85.5066L72.1888 89.4165L73.9851 99.7089L96.3878 95.799L94.5914 85.5066Z" fill="#407BFF"/>
<path d="M96.7597 97.9531L74.357 101.863L76.1533 112.155L98.556 108.246L96.7597 97.9531Z" fill="#407BFF"/>
<path d="M98.9356 110.405L76.533 114.315L78.3293 124.608L100.732 120.698L98.9356 110.405Z" fill="#407BFF"/>
<path d="M101.298 123.838L78.7844 127.704L80.5606 138.048L103.074 134.182L101.298 123.838Z" fill="#407BFF"/>
<path d="M103.279 135.297L80.876 139.207L82.6724 149.5L105.075 145.59L103.279 135.297Z" fill="#407BFF"/>
<path opacity="0.05" d="M90.2406 60.6023L67.8379 64.5122L69.6342 74.8046L92.0369 70.8947L90.2406 60.6023Z" fill="black"/>
<path opacity="0.1" d="M92.4166 73.0545L70.0139 76.9644L71.8102 87.2568L94.2129 83.3469L92.4166 73.0545Z" fill="black"/>
<path opacity="0.2" d="M94.5914 85.5066L72.1888 89.4165L73.9851 99.7089L96.3878 95.799L94.5914 85.5066Z" fill="black"/>
<path opacity="0.3" d="M96.7597 97.9531L74.357 101.863L76.1533 112.155L98.556 108.246L96.7597 97.9531Z" fill="black"/>
<path opacity="0.4" d="M98.9356 110.405L76.533 114.315L78.3293 124.608L100.732 120.698L98.9356 110.405Z" fill="black"/>
<path opacity="0.5" d="M101.298 123.838L78.7844 127.704L80.5606 138.048L103.074 134.182L101.298 123.838Z" fill="black"/>
<path opacity="0.6" d="M103.279 135.297L80.876 139.207L82.6724 149.5L105.075 145.59L103.279 135.297Z" fill="black"/>
<path d="M72.8254 64.9367L47.6878 74.0364L85.0299 177.193L110.167 168.093L72.8254 64.9367Z" fill="#407BFF"/>
<path opacity="0.9" d="M72.8254 64.9367L47.6878 74.0364L85.0299 177.193L110.167 168.093L72.8254 64.9367Z" fill="white"/>
<path d="M72.728 70.5235L51.3446 78.2642L54.9009 88.0883L76.2843 80.3476L72.728 70.5235Z" fill="#407BFF"/>
<path d="M77.0329 82.4083L55.6495 90.1489L59.2058 99.973L80.5891 92.2324L77.0329 82.4083Z" fill="#407BFF"/>
<path d="M81.3248 94.2947L59.9414 102.035L63.4977 111.86L84.8811 104.119L81.3248 94.2947Z" fill="#407BFF"/>
<path d="M85.6297 106.179L64.2463 113.92L67.8026 123.744L89.1859 116.003L85.6297 106.179Z" fill="#407BFF"/>
<path d="M89.9346 118.057L68.5513 125.798L72.1076 135.622L93.4909 127.881L89.9346 118.057Z" fill="#407BFF"/>
<path d="M94.2328 129.941L72.8494 137.682L76.4057 147.506L97.7891 139.766L94.2328 129.941Z" fill="#407BFF"/>
<path d="M98.5378 141.826L77.1544 149.567L80.7107 159.391L102.094 151.65L98.5378 141.826Z" fill="#407BFF"/>
<path opacity="0.6" d="M72.728 70.5235L51.3446 78.2642L54.9009 88.0883L76.2843 80.3476L72.728 70.5235Z" fill="white"/>
<path opacity="0.5" d="M77.0329 82.4083L55.6495 90.1489L59.2058 99.973L80.5891 92.2324L77.0329 82.4083Z" fill="white"/>
<path opacity="0.4" d="M81.3248 94.2947L59.9414 102.035L63.4977 111.86L84.8811 104.119L81.3248 94.2947Z" fill="white"/>
<path opacity="0.3" d="M85.6297 106.179L64.2463 113.92L67.8026 123.744L89.1859 116.003L85.6297 106.179Z" fill="white"/>
<path opacity="0.2" d="M89.9346 118.057L68.5513 125.798L72.1076 135.622L93.4909 127.881L89.9346 118.057Z" fill="white"/>
<path opacity="0.1" d="M94.2328 129.941L72.8494 137.682L76.4057 147.506L97.7891 139.766L94.2328 129.941Z" fill="white"/>
</svg>
