<svg width="336" height="250" viewBox="0 0 336 250" fill="none" xmlns="http://www.w3.org/2000/svg">
<path d="M53.8209 83.2081C47.218 87.3551 41.9369 93.8373 38.9173 103.218C29.2007 133.415 45.0707 169.496 67.1007 190.231C87.5269 209.443 114.898 220.246 142.344 224.346C159.429 226.955 176.817 226.878 193.879 224.118C205.556 222.212 216.829 218.358 227.229 212.717C283.596 181.85 297.446 102.614 271.685 47.5427C269.884 43.6524 267.809 39.8942 265.478 36.2962C258.231 25.1571 247.857 15.6821 235.282 11.3606C222.492 6.97207 207.769 8.67649 196.724 16.7289C185.377 24.9557 180.928 39.7185 176.902 52.4681C173.963 61.829 170.903 71.3644 165.098 79.2691C147.081 103.775 121.528 88.5428 99.0754 81.0474C83.5678 75.867 66.329 75.3235 53.8209 83.2081Z" fill="#407BFF"/>
<path opacity="0.9" d="M53.8209 83.2081C47.218 87.3551 41.9369 93.8373 38.9173 103.218C29.2007 133.415 45.0707 169.496 67.1007 190.231C87.5269 209.443 114.898 220.246 142.344 224.346C159.429 226.955 176.817 226.878 193.879 224.118C205.556 222.212 216.829 218.358 227.229 212.717C283.596 181.85 297.446 102.614 271.685 47.5427C269.884 43.6524 267.809 39.8942 265.478 36.2962C258.231 25.1571 247.857 15.6821 235.282 11.3606C222.492 6.97207 207.769 8.67649 196.724 16.7289C185.377 24.9557 180.928 39.7185 176.902 52.4681C173.963 61.829 170.903 71.3644 165.098 79.2691C147.081 103.775 121.528 88.5428 99.0754 81.0474C83.5678 75.867 66.329 75.3235 53.8209 83.2081Z" fill="white"/>
<path d="M167.758 250C239.614 250 297.865 246.599 297.865 242.404C297.865 238.209 239.614 234.808 167.758 234.808C95.9024 234.808 37.6517 238.209 37.6517 242.404C37.6517 246.599 95.9024 250 167.758 250Z" fill="#F5F5F5"/>
<path d="M215.735 26.3382V238.465C215.735 238.876 215.654 239.283 215.495 239.662C215.336 240.042 215.104 240.386 214.811 240.674C214.518 240.963 214.171 241.19 213.789 241.343C213.407 241.496 212.999 241.572 212.588 241.565H105.813C105.44 241.57 105.07 241.499 104.724 241.357C104.379 241.216 104.066 241.006 103.803 240.74C103.541 240.475 103.334 240.159 103.197 239.812C103.059 239.465 102.993 239.093 103.002 238.72V26.0832C102.989 25.7545 103.042 25.4265 103.156 25.118C103.27 24.8095 103.444 24.5265 103.668 24.2854C103.892 24.0442 104.161 23.8494 104.46 23.7123C104.759 23.5752 105.082 23.4984 105.411 23.4863H130.762C131.155 23.4933 131.536 23.6171 131.857 23.8418C132.179 24.0665 132.426 24.382 132.568 24.7479L133.728 27.6065C133.872 27.9699 134.12 28.2825 134.441 28.5047C134.763 28.7269 135.143 28.8487 135.534 28.8546H183.264C183.653 28.853 184.033 28.7352 184.354 28.5164C184.676 28.2976 184.925 27.9878 185.069 27.6266L186.23 24.7546C186.375 24.3904 186.623 24.0765 186.943 23.8512C187.264 23.6259 187.643 23.4991 188.035 23.4863H213.011C213.747 23.5142 214.443 23.8276 214.951 24.36C215.46 24.8924 215.741 25.602 215.735 26.3382Z" fill="#407BFF"/>
<path opacity="0.6" d="M215.735 26.3382V238.465C215.735 238.876 215.654 239.283 215.495 239.662C215.336 240.042 215.104 240.386 214.811 240.674C214.518 240.963 214.171 241.19 213.789 241.343C213.407 241.496 212.999 241.572 212.588 241.565H105.813C105.44 241.57 105.07 241.499 104.724 241.357C104.379 241.216 104.066 241.006 103.803 240.74C103.541 240.475 103.334 240.159 103.197 239.812C103.059 239.465 102.993 239.093 103.002 238.72V26.0832C102.989 25.7545 103.042 25.4265 103.156 25.118C103.27 24.8095 103.444 24.5265 103.668 24.2854C103.892 24.0442 104.161 23.8494 104.46 23.7123C104.759 23.5752 105.082 23.4984 105.411 23.4863H130.762C131.155 23.4933 131.536 23.6171 131.857 23.8418C132.179 24.0665 132.426 24.382 132.568 24.7479L133.728 27.6065C133.872 27.9699 134.12 28.2825 134.441 28.5047C134.763 28.7269 135.143 28.8487 135.534 28.8546H183.264C183.653 28.853 184.033 28.7352 184.354 28.5164C184.676 28.2976 184.925 27.9878 185.069 27.6266L186.23 24.7546C186.375 24.3904 186.623 24.0765 186.943 23.8512C187.264 23.6259 187.643 23.4991 188.035 23.4863H213.011C213.747 23.5142 214.443 23.8276 214.951 24.36C215.46 24.8924 215.741 25.602 215.735 26.3382Z" fill="white"/>
<path d="M134.212 184.5H110.96C109.708 184.5 108.692 185.516 108.692 186.769V210.02C108.692 211.272 109.708 212.288 110.96 212.288H134.212C135.464 212.288 136.48 211.272 136.48 210.02V186.769C136.48 185.516 135.464 184.5 134.212 184.5Z" fill="white"/>
<path opacity="0.5" d="M130.588 190.379H114.57V206.396H130.588V190.379Z" fill="#407BFF"/>
<path opacity="0.3" d="M114.57 190.379V206.396H130.595V190.379H114.57ZM122.066 198.391L115.309 205.148V191.634L122.066 198.391ZM115.825 191.117H129.34L122.583 197.868L115.825 191.117ZM122.583 198.908L129.34 205.665H115.825L122.583 198.908ZM123.099 198.391L129.857 191.634V205.148L123.099 198.391Z" fill="white"/>
<path opacity="0.75" d="M136.721 218.086H108.444V221.273H136.721V218.086Z" fill="#407BFF"/>
<path d="M109.605 218.931H108.8V218.643H110.739V218.931H109.934V220.985H109.605V218.931Z" fill="white"/>
<path d="M170.508 184.218H147.256C146.004 184.218 144.988 185.234 144.988 186.486V209.738C144.988 210.99 146.004 212.006 147.256 212.006H170.508C171.76 212.006 172.776 210.99 172.776 209.738V186.486C172.776 185.234 171.76 184.218 170.508 184.218Z" fill="white"/>
<path opacity="0.5" d="M166.884 190.104H150.867V206.121H166.884V190.104Z" fill="#407BFF"/>
<path opacity="0.3" d="M150.867 190.104V206.121H166.891V190.104H150.867ZM158.362 198.116L151.605 204.866V191.358L158.362 198.116ZM152.121 190.842H165.636L158.879 197.592L152.121 190.842ZM158.879 198.626L165.636 205.383H152.121L158.879 198.626ZM159.395 198.109L166.153 191.352V204.866L159.395 198.109Z" fill="white"/>
<path opacity="0.75" d="M173.017 217.811H144.74V220.998H173.017V217.811Z" fill="#407BFF"/>
<path d="M145.908 218.656H145.102V218.367H147.042V218.656H146.236V220.669H145.908V218.656Z" fill="white"/>
<path d="M206.804 183.944H183.553C182.3 183.944 181.285 184.959 181.285 186.212V209.463C181.285 210.716 182.3 211.731 183.553 211.731H206.804C208.057 211.731 209.072 210.716 209.072 209.463V186.212C209.072 184.959 208.057 183.944 206.804 183.944Z" fill="white"/>
<path opacity="0.5" d="M203.18 189.829H187.163V205.846H203.18V189.829Z" fill="#407BFF"/>
<path opacity="0.3" d="M187.163 189.829V205.846H203.18V189.829H187.163ZM194.652 197.834L187.901 204.591V191.083L194.652 197.834ZM188.418 190.573H201.932L195.175 197.331L188.418 190.573ZM195.175 198.371L201.932 205.128H188.418L195.175 198.371ZM195.692 197.847L202.449 191.097V204.605L195.692 197.847Z" fill="white"/>
<path opacity="0.75" d="M209.314 217.535H181.036V220.723H209.314V217.535Z" fill="#407BFF"/>
<path d="M182.197 218.381H181.392V218.086H183.331V218.381H182.526V220.428H182.197V218.381Z" fill="white"/>
<path d="M208.992 43.2683H109.746C109.027 43.2683 108.444 43.8511 108.444 44.5701V90.9385C108.444 91.6575 109.027 92.2403 109.746 92.2403H208.992C209.711 92.2403 210.293 91.6575 210.293 90.9385V44.5701C210.293 43.8511 209.711 43.2683 208.992 43.2683Z" fill="white"/>
<path opacity="0.75" d="M113.403 68.7474C114.648 68.7474 115.658 67.7379 115.658 66.4927C115.658 65.2475 114.648 64.238 113.403 64.238C112.158 64.238 111.148 65.2475 111.148 66.4927C111.148 67.7379 112.158 68.7474 113.403 68.7474Z" fill="#407BFF"/>
<path d="M112.289 66.4927L114.034 67.6737V65.3049L112.289 66.4927Z" fill="white"/>
<path opacity="0.75" d="M205.334 68.7474C206.58 68.7474 207.589 67.7379 207.589 66.4927C207.589 65.2475 206.58 64.238 205.334 64.238C204.089 64.238 203.08 65.2475 203.08 66.4927C203.08 67.7379 204.089 68.7474 205.334 68.7474Z" fill="#407BFF"/>
<path d="M206.448 66.4927L204.704 65.3049V67.6737L206.448 66.4927Z" fill="white"/>
<path opacity="0.75" d="M182.177 55.1189H125.347V60.7824H182.177V55.1189Z" fill="#407BFF"/>
<path opacity="0.75" d="M182.177 62.4729H125.347V68.1364H182.177V62.4729Z" fill="#407BFF"/>
<path opacity="0.75" d="M171.89 70.3914H125.347V76.0549H171.89V70.3914Z" fill="#407BFF"/>
<path d="M127.414 56.6217H125.985V56.105H129.434V56.6217H128.005V60.2721H127.414V56.6217Z" fill="white"/>
<path opacity="0.75" d="M150.102 89.5158C150.102 89.7175 150.042 89.9147 149.93 90.0825C149.818 90.2502 149.658 90.3809 149.472 90.4581C149.286 90.5353 149.081 90.5555 148.883 90.5162C148.685 90.4768 148.503 90.3797 148.361 90.237C148.218 90.0944 148.121 89.9127 148.081 89.7148C148.042 89.5169 148.062 89.3119 148.139 89.1255C148.217 88.9391 148.347 88.7798 148.515 88.6677C148.683 88.5557 148.88 88.4958 149.082 88.4958C149.352 88.4958 149.612 88.6033 149.803 88.7946C149.994 88.9859 150.102 89.2453 150.102 89.5158Z" fill="#407BFF"/>
<path opacity="0.75" d="M155.242 89.5158C155.242 89.7179 155.182 89.9153 155.069 90.0832C154.957 90.2511 154.797 90.3818 154.611 90.4588C154.424 90.5358 154.218 90.5556 154.02 90.5157C153.822 90.4758 153.641 90.378 153.498 90.2347C153.356 90.0913 153.259 89.909 153.221 89.7107C153.182 89.5124 153.203 89.3071 153.281 89.1208C153.36 88.9346 153.491 88.7758 153.66 88.6645C153.829 88.5532 154.026 88.4945 154.228 88.4959C154.498 88.4976 154.756 88.6059 154.945 88.797C155.135 88.9881 155.242 89.2465 155.242 89.5158Z" fill="#407BFF"/>
<path opacity="0.75" d="M160.389 89.5158C160.389 89.7175 160.329 89.9147 160.217 90.0825C160.105 90.2502 159.945 90.3809 159.759 90.4581C159.573 90.5353 159.367 90.5555 159.17 90.5162C158.972 90.4768 158.79 90.3797 158.647 90.237C158.505 90.0944 158.408 89.9127 158.368 89.7148C158.329 89.5169 158.349 89.3119 158.426 89.1255C158.503 88.9391 158.634 88.7798 158.802 88.6677C158.97 88.5557 159.167 88.4958 159.369 88.4958C159.503 88.4958 159.635 88.5222 159.759 88.5735C159.883 88.6247 159.995 88.6999 160.09 88.7946C160.185 88.8893 160.26 89.0017 160.311 89.1255C160.362 89.2492 160.389 89.3819 160.389 89.5158Z" fill="#407BFF"/>
<path opacity="0.75" d="M165.529 89.5158C165.529 89.7179 165.469 89.9153 165.356 90.0832C165.244 90.2511 165.084 90.3818 164.898 90.4588C164.711 90.5358 164.505 90.5556 164.307 90.5157C164.109 90.4758 163.928 90.378 163.785 90.2347C163.643 90.0913 163.546 89.909 163.508 89.7107C163.469 89.5124 163.49 89.3071 163.568 89.1208C163.647 88.9346 163.778 88.7758 163.947 88.6645C164.116 88.5532 164.313 88.4945 164.515 88.4959C164.785 88.4976 165.043 88.6059 165.232 88.797C165.422 88.9881 165.529 89.2465 165.529 89.5158Z" fill="#407BFF"/>
<path opacity="0.75" d="M170.676 89.5158C170.676 89.7175 170.616 89.9147 170.504 90.0825C170.392 90.2502 170.232 90.3809 170.046 90.4581C169.859 90.5353 169.654 90.5555 169.457 90.5162C169.259 90.4768 169.077 90.3797 168.934 90.237C168.792 90.0944 168.695 89.9127 168.655 89.7148C168.616 89.5169 168.636 89.3119 168.713 89.1255C168.79 88.9391 168.921 88.7798 169.089 88.6677C169.257 88.5557 169.454 88.4958 169.656 88.4958C169.926 88.4958 170.185 88.6033 170.377 88.7946C170.568 88.9859 170.676 89.2453 170.676 89.5158Z" fill="#407BFF"/>
<path d="M210.293 99.1582H108.444V107.117H210.293V99.1582Z" fill="white"/>
<path opacity="0.75" d="M210.293 99.0713H202.154V107.211H210.293V99.0713Z" fill="#407BFF"/>
<path d="M200.496 113.271H110.189C109.225 113.271 108.444 114.052 108.444 115.015V142.434C108.444 143.397 109.225 144.178 110.189 144.178H200.496C201.46 144.178 202.241 143.397 202.241 142.434V115.015C202.241 114.052 201.46 113.271 200.496 113.271Z" fill="white"/>
<path opacity="0.5" d="M141.962 117.558H112.624V139.897H141.962V117.558Z" fill="#407BFF"/>
<path opacity="0.3" d="M112.624 117.558V139.897H141.962V117.558H112.624ZM140.627 118.229L127.293 128.295L113.967 118.229H140.627ZM113.296 118.565L126.716 128.724L113.296 138.904V118.565ZM113.967 139.226L127.293 129.161L140.627 139.226H113.967ZM127.85 128.724L141.271 118.565V138.904L127.85 128.724Z" fill="white"/>
<path opacity="0.75" d="M198.523 117.887H146.518V120.799H198.523V117.887Z" fill="#407BFF"/>
<path opacity="0.75" d="M198.523 123.007H146.518V125.92H198.523V123.007Z" fill="#407BFF"/>
<path opacity="0.75" d="M170.421 128.415H146.518V131.328H170.421V128.415Z" fill="#407BFF"/>
<path d="M147.579 118.665H146.847V118.397H148.592V118.665H147.854V120.538H147.552L147.579 118.665Z" fill="white"/>
<path d="M200.496 146.822H110.189C109.225 146.822 108.444 147.603 108.444 148.567V175.985C108.444 176.949 109.225 177.73 110.189 177.73H200.496C201.46 177.73 202.241 176.949 202.241 175.985V148.567C202.241 147.603 201.46 146.822 200.496 146.822Z" fill="white"/>
<path opacity="0.5" d="M141.962 151.11H112.624V173.449H141.962V151.11Z" fill="#407BFF"/>
<path opacity="0.3" d="M112.624 151.11V173.449H141.962V151.11H112.624ZM140.627 151.781L127.293 161.846L113.967 151.781H140.627ZM113.296 152.116L126.716 162.276L113.296 172.455V152.116ZM113.967 172.778L127.293 162.712L140.627 172.778H113.967ZM127.85 162.276L141.271 152.116V172.455L127.85 162.276Z" fill="white"/>
<path opacity="0.75" d="M198.523 151.438H146.518V154.351H198.523V151.438Z" fill="#407BFF"/>
<path opacity="0.75" d="M198.523 156.559H146.518V159.471H198.523V156.559Z" fill="#407BFF"/>
<path opacity="0.75" d="M170.421 161.967H146.518V164.879H170.421V161.967Z" fill="#407BFF"/>
<path d="M147.579 152.217H146.847V151.948H148.592V152.217H147.854V154.089H147.552L147.579 152.217Z" fill="white"/>
<path d="M209.314 113.304H205.69V177.736H209.314V113.304Z" fill="white"/>
<path opacity="0.75" d="M209.314 116.806H205.69V126.899H209.314V116.806Z" fill="#407BFF"/>
<path d="M215.735 26.3382V36.7325H103.002V26.0832C102.989 25.7545 103.042 25.4265 103.156 25.118C103.27 24.8095 103.444 24.5265 103.668 24.2854C103.892 24.0442 104.161 23.8494 104.46 23.7123C104.759 23.5752 105.082 23.4984 105.411 23.4863H130.762C131.155 23.4933 131.536 23.6171 131.857 23.8418C132.179 24.0665 132.426 24.382 132.568 24.7479L133.728 27.6065C133.872 27.9699 134.12 28.2825 134.441 28.5047C134.763 28.7269 135.143 28.8487 135.534 28.8546H183.264C183.653 28.853 184.033 28.7352 184.354 28.5164C184.676 28.2976 184.925 27.9878 185.069 27.6266L186.23 24.7546C186.375 24.3904 186.623 24.0765 186.943 23.8512C187.264 23.6259 187.643 23.4991 188.035 23.4863H213.011C213.747 23.5142 214.443 23.8276 214.951 24.36C215.46 24.8924 215.741 25.602 215.735 26.3382Z" fill="#407BFF"/>
<path d="M103.002 227.48H215.735V238.472C215.735 238.883 215.654 239.29 215.495 239.669C215.336 240.048 215.104 240.392 214.811 240.68C214.518 240.969 214.171 241.196 213.789 241.349C213.407 241.502 212.999 241.578 212.588 241.572H105.813C105.44 241.576 105.07 241.506 104.724 241.364C104.379 241.222 104.066 241.012 103.803 240.747C103.541 240.481 103.334 240.165 103.197 239.818C103.059 239.471 102.993 239.1 103.002 238.726V227.48Z" fill="#407BFF"/>
<path d="M98.4527 24.5798H78.013V34.5313H98.4527V24.5798Z" fill="#407BFF"/>
<path d="M81.4017 27.2908H95.0707" stroke="white" stroke-linecap="round" stroke-linejoin="round"/>
<path d="M81.4017 29.5522H95.0707" stroke="white" stroke-linecap="round" stroke-linejoin="round"/>
<path d="M81.4017 31.8135H88.2396" stroke="white" stroke-linecap="round" stroke-linejoin="round"/>
<path d="M92.3194 34.1221L112.491 51.6159" stroke="#407BFF" stroke-miterlimit="10"/>
<path d="M112.491 52.8373C113.165 52.8373 113.712 52.2905 113.712 51.616C113.712 50.9416 113.165 50.3948 112.491 50.3948C111.816 50.3948 111.269 50.9416 111.269 51.616C111.269 52.2905 111.816 52.8373 112.491 52.8373Z" fill="#407BFF"/>
<path d="M96.4396 148.258H76V158.209H96.4396V148.258Z" fill="#407BFF"/>
<path d="M79.3887 150.969H93.0577" stroke="white" stroke-linecap="round" stroke-linejoin="round"/>
<path d="M79.3887 153.23H93.0577" stroke="white" stroke-linecap="round" stroke-linejoin="round"/>
<path d="M79.3887 155.492H86.2265" stroke="white" stroke-linecap="round" stroke-linejoin="round"/>
<path d="M110.478 154.452C111.152 154.452 111.699 153.905 111.699 153.23C111.699 152.556 111.152 152.009 110.478 152.009C109.803 152.009 109.256 152.556 109.256 153.23C109.256 153.905 109.803 154.452 110.478 154.452Z" fill="#407BFF"/>
<path d="M110.478 153.23H95.2183" stroke="#407BFF" stroke-miterlimit="10"/>
<path d="M240.826 71.6863H220.386V81.6377H240.826V71.6863Z" fill="#407BFF"/>
<path d="M223.768 74.3972H237.444" stroke="white" stroke-linecap="round" stroke-linejoin="round"/>
<path d="M223.768 76.6587H237.444" stroke="white" stroke-linecap="round" stroke-linejoin="round"/>
<path d="M223.768 78.9199H230.606" stroke="white" stroke-linecap="round" stroke-linejoin="round"/>
<path d="M197.343 102.628C198.017 102.628 198.564 102.081 198.564 101.406C198.564 100.732 198.017 100.185 197.343 100.185C196.668 100.185 196.121 100.732 196.121 101.406C196.121 102.081 196.668 102.628 197.343 102.628Z" fill="#407BFF"/>
<path d="M197.343 101.407L226.821 79.343" stroke="#407BFF" stroke-miterlimit="10"/>
<path d="M242.825 203.826H222.386V213.778H242.825V203.826Z" fill="#407BFF"/>
<path d="M225.774 206.544H239.443" stroke="white" stroke-linecap="round" stroke-linejoin="round"/>
<path d="M225.774 208.805H239.443" stroke="white" stroke-linecap="round" stroke-linejoin="round"/>
<path d="M225.774 211.067H232.612" stroke="white" stroke-linecap="round" stroke-linejoin="round"/>
<path d="M200.564 208.805C200.564 209.047 200.492 209.283 200.357 209.484C200.223 209.685 200.032 209.842 199.808 209.934C199.585 210.026 199.339 210.05 199.102 210.003C198.865 209.955 198.647 209.838 198.476 209.666C198.306 209.495 198.19 209.277 198.144 209.039C198.097 208.802 198.123 208.556 198.216 208.333C198.31 208.11 198.467 207.92 198.669 207.787C198.871 207.653 199.107 207.583 199.349 207.584C199.509 207.584 199.668 207.616 199.815 207.677C199.963 207.739 200.097 207.829 200.21 207.942C200.323 208.056 200.413 208.19 200.473 208.338C200.534 208.487 200.565 208.645 200.564 208.805Z" fill="#407BFF"/>
<path d="M199.349 208.805H223.896" stroke="#407BFF" stroke-miterlimit="10"/>
</svg>
