<svg width="336" height="250" viewBox="0 0 336 250" fill="none" xmlns="http://www.w3.org/2000/svg">
<path d="M167.758 250C239.614 250 297.865 246.599 297.865 242.404C297.865 238.209 239.614 234.808 167.758 234.808C95.9023 234.808 37.6516 238.209 37.6516 242.404C37.6516 246.599 95.9023 250 167.758 250Z" fill="#F5F5F5"/>
<path d="M232.661 26.3447C211.382 26.2843 198.364 41.8254 185.588 56.6082C179.018 64.2043 172.221 71.9548 163.49 77.1418C149.64 85.3821 134.052 83.5435 118.9 85.5432C71.5455 91.7905 24.5464 131.744 51.3206 182.984C70.5591 219.803 115.149 229.554 153.365 225.93C191.117 222.34 227.95 205.128 254.852 177.884C282.169 150.224 307.648 102.473 289.262 63.6071C278.714 41.2953 257.677 26.4185 232.661 26.3447Z" fill="#407BFF"/>
<path opacity="0.9" d="M232.661 26.3447C211.382 26.2843 198.364 41.8254 185.588 56.6082C179.018 64.2043 172.221 71.9548 163.49 77.1418C149.64 85.3821 134.052 83.5435 118.9 85.5432C71.5455 91.7905 24.5464 131.744 51.3206 182.984C70.5591 219.803 115.149 229.554 153.365 225.93C191.117 222.34 227.95 205.128 254.852 177.884C282.169 150.224 307.648 102.473 289.262 63.6071C278.714 41.2953 257.677 26.4185 232.661 26.3447Z" fill="white"/>
<path d="M278 85.1355V195.99C278.001 197.79 277.648 199.574 276.959 201.237C276.271 202.901 275.262 204.413 273.989 205.687C272.716 206.96 271.205 207.971 269.542 208.66C267.878 209.35 266.095 209.704 264.295 209.704H253.292V85.1355H278Z" fill="#407BFF"/>
<path opacity="0.8" d="M278 85.1355V195.99C278.001 197.79 277.648 199.574 276.959 201.237C276.271 202.901 275.262 204.413 273.989 205.687C272.716 206.96 271.205 207.971 269.542 208.66C267.878 209.35 266.095 209.704 264.295 209.704H253.292V85.1355H278Z" fill="white"/>
<path d="M278 76.7145V195.99C278.001 197.791 277.648 199.574 276.959 201.238C276.271 202.901 275.262 204.413 273.989 205.687C272.716 206.961 271.205 207.971 269.542 208.66C267.878 209.35 266.095 209.704 264.295 209.704H70.5797C66.9424 209.704 63.4541 208.26 60.8821 205.688C58.3102 203.116 56.8652 199.627 56.8652 195.99V76.7145C56.864 74.9132 57.2179 73.1292 57.9067 71.4648C58.5955 69.8003 59.6057 68.2879 60.8794 67.0142C62.1532 65.7404 63.6655 64.7303 65.33 64.0415C66.9945 63.3527 68.7784 62.9988 70.5797 63H264.295C266.095 63 267.878 63.3548 269.542 64.0441C271.205 64.7335 272.716 65.7438 273.989 67.0175C275.262 68.2911 276.271 69.803 276.959 71.4669C277.648 73.1308 278.001 74.9139 278 76.7145Z" fill="white" stroke="#407BFF" stroke-miterlimit="10"/>
<path d="M277.371 72.5965H57.4945C58.3708 69.8128 60.1122 67.3812 62.4656 65.6553C64.8189 63.9294 67.6614 62.9992 70.5797 63H264.295C267.212 63.0012 270.052 63.9323 272.403 65.658C274.755 67.3838 276.495 69.8143 277.371 72.5965Z" fill="#407BFF"/>
<path d="M84.8123 69.7463C85.8855 69.7463 86.7556 68.8763 86.7556 67.803C86.7556 66.7297 85.8855 65.8596 84.8123 65.8596C83.739 65.8596 82.8689 66.7297 82.8689 67.803C82.8689 68.8763 83.739 69.7463 84.8123 69.7463Z" fill="white"/>
<path d="M91.7529 69.7463C92.8262 69.7463 93.6963 68.8763 93.6963 67.803C93.6963 66.7297 92.8262 65.8596 91.7529 65.8596C90.6796 65.8596 89.8096 66.7297 89.8096 67.803C89.8096 68.8763 90.6796 69.7463 91.7529 69.7463Z" fill="white"/>
<path d="M100.628 67.8032C100.628 68.1898 100.513 68.5677 100.298 68.889C100.083 69.2103 99.7774 69.4605 99.4201 69.608C99.0628 69.7556 98.6697 69.7937 98.2907 69.7176C97.9116 69.6415 97.5637 69.4546 97.291 69.1806C97.0183 68.9066 96.8331 68.5578 96.7588 68.1784C96.6845 67.7991 96.7245 67.4062 96.8737 67.0495C97.0229 66.6929 97.2746 66.3886 97.597 66.1752C97.9193 65.9617 98.2977 65.8488 98.6843 65.8506C98.9402 65.8506 99.1937 65.9012 99.4301 65.9994C99.6665 66.0977 99.8811 66.2416 100.062 66.4231C100.242 66.6045 100.385 66.8198 100.482 67.0567C100.579 67.2935 100.629 67.5472 100.628 67.8032Z" fill="white"/>
<path d="M278 76.7145V85.1357H56.8281V76.7145C56.828 75.3178 57.0402 73.9293 57.4574 72.5964H277.334C277.763 73.9274 277.988 75.3159 278 76.7145Z" fill="#407BFF"/>
<path opacity="0.5" d="M278 76.7145V85.1357H56.8281V76.7145C56.828 75.3178 57.0402 73.9293 57.4574 72.5964H277.334C277.763 73.9274 277.988 75.3159 278 76.7145Z" fill="white"/>
<path d="M82.8784 85.1355V209.704H70.2744C67.3103 209.729 64.4149 208.812 62.0051 207.086C59.5954 205.359 57.7957 202.913 56.8652 200.099V85.1355H82.8784Z" fill="#407BFF"/>
<path opacity="0.1" d="M82.8784 85.1355V209.704H70.2744C67.3103 209.729 64.4149 208.812 62.0051 207.086C59.5954 205.359 57.7957 202.913 56.8652 200.099V85.1355H82.8784Z" fill="black"/>
<path opacity="0.1" d="M244.621 93.9641H91.7529V197.138H244.621V93.9641Z" fill="#407BFF"/>
<path opacity="0.2" d="M67.424 99.1646H60.8536V105.735H67.424V99.1646Z" fill="black"/>
<path opacity="0.2" d="M77.3721 99.1646H70.8018V105.735H77.3721V99.1646Z" fill="black"/>
<path d="M183.479 145.139C189.078 137.884 192.733 128.361 191.974 119.061C191.262 110.335 184.219 105.013 175.669 107.105C172.06 108.03 168.756 109.789 165.424 111.445C159.872 114.221 154.023 116.59 147.842 117.34C141.66 118.089 135.543 117.34 129.519 119.7C119.034 123.79 116.119 137.19 120.163 146.907C123.753 155.531 132.304 162.194 141.401 164.045" stroke="#263238" stroke-linecap="round" stroke-linejoin="round"/>
<path opacity="0.2" d="M67.424 109.585H60.8536V116.155H67.424V109.585Z" fill="black"/>
<path opacity="0.2" d="M77.3721 109.585H70.8018V116.155H77.3721V109.585Z" fill="black"/>
<path opacity="0.2" d="M67.424 120.005H60.8536V126.575H67.424V120.005Z" fill="black"/>
<path opacity="0.2" d="M77.3721 120.005H70.8018V126.575H77.3721V120.005Z" fill="black"/>
<path opacity="0.2" d="M67.424 130.425H60.8536V136.995H67.424V130.425Z" fill="black"/>
<path opacity="0.2" d="M77.3721 130.425H70.8018V136.995H77.3721V130.425Z" fill="black"/>
<path opacity="0.2" d="M67.424 140.836H60.8536V147.406H67.424V140.836Z" fill="black"/>
<path opacity="0.2" d="M77.3721 140.836H70.8018V147.406H77.3721V140.836Z" fill="black"/>
<path opacity="0.2" d="M67.424 151.256H60.8536V157.826H67.424V151.256Z" fill="black"/>
<path opacity="0.2" d="M77.3721 151.256H70.8018V157.826H77.3721V151.256Z" fill="black"/>
<path d="M67.2111 161.38C67.2111 161.529 67.1669 161.674 67.0841 161.797C67.0013 161.921 66.8837 162.017 66.7462 162.073C66.6087 162.13 66.4575 162.144 66.3118 162.114C66.1662 162.085 66.0326 162.012 65.9282 161.907C65.8237 161.801 65.7531 161.666 65.7252 161.52C65.6973 161.374 65.7135 161.223 65.7717 161.087C65.8298 160.95 65.9273 160.833 66.0518 160.752C66.1763 160.671 66.3221 160.629 66.4708 160.63C66.5688 160.63 66.6658 160.65 66.7562 160.688C66.8466 160.725 66.9287 160.781 66.9975 160.851C67.0664 160.92 67.1207 161.003 67.1574 161.094C67.1941 161.185 67.2123 161.282 67.2111 161.38Z" fill="#263238"/>
<path d="M69.9042 161.38C69.9042 161.528 69.8602 161.673 69.7779 161.796C69.6955 161.92 69.5784 162.016 69.4415 162.073C69.3045 162.129 69.1538 162.144 69.0084 162.115C68.863 162.086 68.7294 162.015 68.6246 161.91C68.5197 161.805 68.4484 161.672 68.4194 161.526C68.3905 161.381 68.4054 161.23 68.4621 161.093C68.5188 160.956 68.6149 160.839 68.7382 160.757C68.8614 160.674 69.0064 160.63 69.1546 160.63C69.2534 160.629 69.3514 160.648 69.4429 160.685C69.5344 160.722 69.6176 160.777 69.6874 160.847C69.7573 160.917 69.8124 161 69.8497 161.092C69.8869 161.183 69.9054 161.281 69.9042 161.38Z" fill="#263238"/>
<path d="M72.5878 161.38C72.5878 161.529 72.5436 161.674 72.4608 161.797C72.378 161.921 72.2604 162.017 72.1229 162.073C71.9854 162.13 71.8342 162.144 71.6885 162.114C71.5429 162.085 71.4093 162.012 71.3049 161.907C71.2004 161.801 71.1298 161.666 71.1019 161.52C71.074 161.374 71.0902 161.223 71.1484 161.087C71.2065 160.95 71.304 160.833 71.4285 160.752C71.553 160.671 71.6988 160.629 71.8475 160.63C71.9455 160.63 72.0425 160.65 72.1329 160.688C72.2233 160.725 72.3054 160.781 72.3742 160.851C72.4431 160.92 72.4974 161.003 72.5341 161.094C72.5708 161.185 72.589 161.282 72.5878 161.38Z" fill="#263238"/>
<path d="M164.083 154.356L162.907 155.18L162.204 150.044L166.489 152.653L165.425 153.375L167.081 155.818L165.776 156.892L164.083 154.356Z" fill="#263238"/>
</svg>
